<?xml version="1.0" encoding="UTF-8"?>
<svg id="uuid-17aa4fc3-a425-4863-ae48-74e1f9e98025" data-name="Layer 1" xmlns="http://www.w3.org/2000/svg" viewBox="0 0 2400 2400">
  <defs>
    <style>
      .uuid-e35d940d-3065-43d9-9d72-5c49b0f12cf7 {
        fill: #f47721;
      }

      .uuid-e35d940d-3065-43d9-9d72-5c49b0f12cf7, .uuid-3dbaf846-4b64-42b5-a6eb-08ede37ad71c, .uuid-ceaadd21-dffd-49e1-98d5-dcb6be853c86, .uuid-02ccb37e-032c-4215-97b4-8cb1788d7f09, .uuid-d12b3eed-b601-4c2e-83db-633d2ad75378, .uuid-a04e3ffa-157b-47b5-be1c-8869931c8fbe, .uuid-708ecd49-6e11-46a4-80e8-fcce9400d2b2, .uuid-afaf9d34-4842-4c04-b4ea-0d0c145a1e32, .uuid-97eb561a-fa8a-4412-99d2-7d79cde5ab79 {
        stroke-width: 0px;
      }

      .uuid-3dbaf846-4b64-42b5-a6eb-08ede37ad71c {
        fill: #faa629;
      }

      .uuid-ceaadd21-dffd-49e1-98d5-dcb6be853c86 {
        fill: #a276b4;
      }

      .uuid-02ccb37e-032c-4215-97b4-8cb1788d7f09 {
        fill: #4b2a4e;
      }

      .uuid-d12b3eed-b601-4c2e-83db-633d2ad75378 {
        fill: #faa828;
      }

      .uuid-a04e3ffa-157b-47b5-be1c-8869931c8fbe {
        fill: #faa823;
      }

      .uuid-708ecd49-6e11-46a4-80e8-fcce9400d2b2 {
        fill: #a79998;
      }

      .uuid-afaf9d34-4842-4c04-b4ea-0d0c145a1e32 {
        fill: #1a0e1c;
      }

      .uuid-97eb561a-fa8a-4412-99d2-7d79cde5ab79 {
        fill: #f37321;
      }
    </style>
  </defs>
  <path class="uuid-afaf9d34-4842-4c04-b4ea-0d0c145a1e32" d="m1455.45,965.01c11.75-88.38-22.31-118.51-36.07-137.46-9.87-41.92-23.58-93.67-47.2-137.51-69.26-146.68-215.1-236.24-353-240.04-222.53,2.05-287.9,163.71-287.2,236.15,4.54,104.54,71.79,141.7,128.25,144.19,73.05-3.41,80.65-61.57,80.65-71.79s-5.98-54.32-52.27-53.88c-46.29.44-53.45,41.48-52.31,69.78-31.7-16.94-36.81-38.47-37.42-71.31,6.77-54.89,58.08-85.54,102.88-75.46,125.54,37.47,124.49,187.07,125.41,215.63-64.06,72.31-57.51,101.57-52.09,119.73-26.9,17.07-33.75,61.53-35.41,78.6,80.17-14.32,168.12-22.23,260.34-22.23,101.57,0,197.94,9.61,284.45,26.77,2.66-48.99-11.57-63.1-28.99-81.18Zm-567.58-233.62c14.32,0,25.94,12.84,25.94,28.73s-11.62,28.69-25.94,28.69-25.94-12.84-25.94-28.69,11.62-28.73,25.94-28.73Z"/>
  <ellipse class="uuid-708ecd49-6e11-46a4-80e8-fcce9400d2b2" cx="1206.95" cy="1870.9" rx="571.04" ry="23.13"/>
  <path class="uuid-afaf9d34-4842-4c04-b4ea-0d0c145a1e32" d="m1831.82,1900.05c0,2.1-16.46,4.15-46.33,5.98-93.53,5.72-318.33,9.74-580.86,9.74s-487.28-4.02-580.77-9.74h-.09c-29.82-1.88-46.29-3.89-46.29-5.98,0-1.05,4.02-2.05,11.75-3.06,56.5-7.21,310.56-12.66,615.4-12.66s559.07,5.46,615.48,12.66c7.69,1,11.7,2.01,11.7,3.06Z"/>
  <path class="uuid-afaf9d34-4842-4c04-b4ea-0d0c145a1e32" d="m1879.41,1311.5c0,161.31-304.18,292.04-679.41,292.04s-679.41-130.74-679.41-292.04c0-121.7,173.01-225.98,419.07-269.86,13.41-2.4,27.03-4.63,40.83-6.64,29.65-4.37,60.22-7.86,91.57-10.39,13.1-1.14,26.37-2.01,39.78-2.75,10.83-.61,21.7-1.09,32.71-1.48,18.3-.66,36.77-.96,55.46-.96,26.11,0,51.88.65,77.25,1.92,10.48.48,20.92,1.09,31.27,1.79,13.49.92,26.86,2.05,40.04,3.32,31.18,2.97,61.53,6.9,90.91,11.7,15.28,2.45,30.26,5.11,44.98,8.03,233.18,46.24,394.97,147.64,394.97,265.32Z"/>
  <path class="uuid-708ecd49-6e11-46a4-80e8-fcce9400d2b2" d="m1785.49,1906.03c-115.89,26.29-332.61,43.97-580.86,43.97s-464.88-17.68-580.77-43.97c93.49,5.72,318.29,9.74,580.77,9.74s487.32-4.02,580.86-9.74Z"/>
  <path class="uuid-afaf9d34-4842-4c04-b4ea-0d0c145a1e32" d="m1608.24,1781.62c-54.37,67.51-141.66,95.37-141.66,95.37,0,0-78.86,14.37-131.96,40.96-53.1,26.59-98.25,12.27-118.08,3.89-22.36-12.66-44.67-2.1-44.67-2.1,0,0-27.86,13.49-50.17,14.37-76.33-.83-119.39-48.03-119.39-48.03,0,0-10.09.87-33.32-1.75-67.03-14.37-101.66-36.99-101.66-36.99,0,0-95.63-66.81-133.75-141.09-38.16-74.23-53.67-126.02-54.37-208.95l.17-43.49s19.52-112.49,47.86-164.8c6.2-17.73.31-23.27-43.54,11.14,22.27-27.07,146.28-160.34,530.9-158.77,153.71,6.16,404.36,33.97,496.67,158.95-22.1-17.38-52.36-43.8-33.97-2.75,18.38,41.05,39.52,98.95,41.44,156.24l1.62,42.01c4.32,121.39-57.81,218.29-112.14,285.8Z"/>
  <path class="uuid-e35d940d-3065-43d9-9d72-5c49b0f12cf7" d="m1088.78,1195.09c-21.75,15.89-143.8,99.21-148.64,384.66-.13,1.48-.26,2.93-.39,4.41-5.5-3.71-10.74-7.64-15.63-11.66-39.21-32.23-59.43-71.79-69.65-100.52-4.37-12.31-6.9-22.62-8.3-29.61,8.34-53.97,26.72-110.17,63.4-162.57,53.97-61.31,71.61-86.42,179.21-84.71Z"/>
  <path class="uuid-e35d940d-3065-43d9-9d72-5c49b0f12cf7" d="m1676.8,1517.22c-22.93,240.17-195.93,305.8-233.79,317.89-37.9,12.1-24.32-3.23-14.02-21.75,24.98-46.77,34.32-86.9,36.68-122.44,6.42-6.77,12.58-13.97,18.6-21.79,10.83-14.06,21.22-30.04,31.83-48.78,17.6-31.09,30.79-65.89,39.43-99.6.96-3.8,1.88-7.6,2.75-11.4,1.22,45.68-2.93,87.46-6.42,120.96,16.55-59.39,19.21-116.68,14.28-168.6v-.17c-1-10.52-2.31-20.83-3.89-30.87v-.04c-19.48-124.36-78.56-211.39-78.56-211.39,133.84,33.19,200.26,171.7,193.09,297.98Z"/>
  <path class="uuid-e35d940d-3065-43d9-9d72-5c49b0f12cf7" d="m1554.4,1456.43c-1.62,4.5-3.27,8.91-4.98,13.19-18.34,45.59-43.93,77.38-69.56,99.47-7.03,6.03-14.06,11.31-20.92,15.98-.17-1.79-.35-3.58-.48-5.33-4.85-285.45-126.9-368.77-148.64-384.66,107.64-1.7,125.24,23.41,179.21,84.71,39.87,56.94,58.16,118.42,65.37,176.63Z"/>
  <ellipse class="uuid-afaf9d34-4842-4c04-b4ea-0d0c145a1e32" cx="1204.65" cy="1832.19" rx="600.54" ry="15.59"/>
  <path class="uuid-e35d940d-3065-43d9-9d72-5c49b0f12cf7" d="m1427.77,1602.85c-25.76,12.05-44.45,14.8-44.45,14.8l6.72,30-56.37,18.65s-3.14-22.75-5.2-37.73c-61.05,18.12-110.7,12.44-110.7,12.44l4.15,38.34h-75.02s1.53-18.65,2.58-38.82c-52.27,3.67-101.92-14.93-101.92-14.93l-8.25,37.25-49.69-17.07s3.62-15.5,8.78-32.58c-7.95-2.66-15.5-5.63-22.62-8.86-7.69-3.45-14.93-7.16-21.75-11.09,3.32-36.24,8.3-74.93,12.49-116.07,47.51-263.35,146.68-285.89,178.73-282.13,35.02,7.6,44.28,263.27,44.28,263.27,0,0,13.23-200.74,16.9-237.42,3.67-36.72,28.6-22.79,68.25-21.35,103.53,18.3,150.83,227.29,159.56,281.78,3.71,23.1,8.43,66.5,11.31,112.18-6.2,3.62-12.14,6.72-17.77,9.34Z"/>
  <path class="uuid-e35d940d-3065-43d9-9d72-5c49b0f12cf7" d="m955.64,1835.11c-37.9-12.1-210.91-77.73-233.84-317.89-7.16-126.28,59.26-264.8,193.09-297.98,0,0-53.75,79.17-75.59,194.45-6.42,33.84-10.09,70.83-8.82,109.82,1.09,34.28,6.03,70.13,16.24,106.81-2.36-22.58-4.98-48.91-6.07-77.64,2.1,5.63,4.24,11.09,6.42,16.42,22.58,55.06,48.6,93.45,72.18,119.87,5.11,5.72,10.13,10.87,14.93,15.5,3.67,32.14,13.58,67.99,35.46,108.91,10.26,18.51,23.84,33.84-14.02,21.75Z"/>
  <path class="uuid-3dbaf846-4b64-42b5-a6eb-08ede37ad71c" d="m867.35,1289.02s-97.33,206.69-8.97,428.62c-13.38-8.02-198.74-198.2,8.97-428.62Z"/>
  <path class="uuid-3dbaf846-4b64-42b5-a6eb-08ede37ad71c" d="m919.05,1740.49c.7,17.99-13.97,25.98-25.98,2.66-19.96-42.97-43.1-102.84-45.98-174.06,22.58,55.06,48.6,93.45,72.18,119.87-.48,26.94-.39,46.33-.22,51.53Z"/>
  <path class="uuid-3dbaf846-4b64-42b5-a6eb-08ede37ad71c" d="m939.92,1450.98v.04c-7.73,30.83-12.71,75.94-15.81,121.48-39.21-32.23-59.43-71.79-69.65-100.52,18.38-111.18,64.93-171,103.4-202.35-36.16,67.6-27.82,142.22-17.95,181.35Z"/>
  <path class="uuid-3dbaf846-4b64-42b5-a6eb-08ede37ad71c" d="m1016.12,1237.05s-5.11,15.15-22.66,46.29c-3.41,6.38-6.72,13.45-10,21.35-17.12-20.13-24.98-34.1-25.54-35.11,31.92-26.07,58.21-32.53,58.21-32.53Z"/>
  <path class="uuid-d12b3eed-b601-4c2e-83db-633d2ad75378" d="m1173.71,1759.79c-1.09,17.64-3.01,33.14-6.33,41.44-10.35,24.37-40.78,44.5-70,39.61-29.26-4.85-82.84-33.45-113.93-98.56-.26-.66-.48-1.35-.7-2.05,4.5,2.23,7.03,3.14,7.03,3.14l16.03-27.99,42.79,22.62s-6.16,16.9-10.65,35.81c33.32,20.57,108.38,26.59,108.38,26.59,0,0-.66-8.52,1.53-42.84,8.08,1.22,17.07,1.92,25.85,2.23Z"/>
  <path class="uuid-d12b3eed-b601-4c2e-83db-633d2ad75378" d="m1146.9,1679.35s1.53-18.65,2.58-38.82c-52.27,3.67-101.92-14.93-101.92-14.93l-8.25,37.25-49.69-17.07s3.62-15.5,8.78-32.58c-7.95-2.66-15.5-5.63-22.62-8.86,1.75-60.87,6.33-120.43,7.47-134.19,85.41-13.58,118.77-31.18,159.73-50.52-55.15-23.93-96.15-53.32-125.32-79.78,15.41-32.79,37.68-66.16,69.82-92.27,0,0,18.38-11.05,32.92-10.52,14.54.52,39.04,21.18,42.14,102.31,3.49,34.45,6.11,96.33,7.99,157.11l-57.81,99.3h60.35c.87,41.88,1.27,71.26,1.27,71.26,0,0,.17,4.67.35,12.31h-27.77Z"/>
  <path class="uuid-3dbaf846-4b64-42b5-a6eb-08ede37ad71c" d="m1543.65,1296.66s88.54,202.86,8.16,420.68c12.17-7.87,180.79-194.53-8.16-420.68Z"/>
  <path class="uuid-d12b3eed-b601-4c2e-83db-633d2ad75378" d="m1557.02,1548.79c0,75.98-24.98,139.69-46.33,184.54-12.01,22.71-26.64,14.93-25.98-2.62.22-5.76.31-29.48-.44-61.57,10.83-14.06,21.22-30.04,31.83-48.78,17.6-31.09,30.79-65.89,39.43-99.6.7,9.04,1.18,18.38,1.48,28.03Z"/>
  <path class="uuid-d12b3eed-b601-4c2e-83db-633d2ad75378" d="m1549.42,1469.62c-18.34,45.59-43.93,77.38-69.56,99.47-3.14-45.46-8.17-90.7-16.11-121.31-.48-1.79-.92-3.49-1.4-5.24v-.04c8.91-40.83,13.84-109.95-19.91-172.96,0,0-7.21,13.19-23.49,32.75-2.84-6.46-5.72-12.31-8.65-17.64-7.64-13.23-12.93-23.49-16.46-30.87-2.62-5.55,3.14-11.35,8.86-8.86,34.93,15.11,120.39,67.38,146.72,224.71Z"/>
  <path class="uuid-d12b3eed-b601-4c2e-83db-633d2ad75378" d="m1420.26,1729.13c-.39,1.14-.79,2.23-1.22,3.23-34.54,63.84-94.01,91.88-126.46,96.63-26.9,3.93-54.71-8.95-69.95-27.07,70.43-4.89,102.35-22.53,102.35-22.53l-4.85-35.94,43.36-19.74s6.99,18.43,13.14,31.53c16.2-8.73,30.57-17.2,43.62-26.11Z"/>
  <path class="uuid-d12b3eed-b601-4c2e-83db-633d2ad75378" d="m1217.95,1795.59c-1.18-1.79-2.18-3.58-3.06-5.41-2.93-6.51-4.89-17.6-6.2-30.61,5.68-.22,9.17-.48,9.17-.48,0,0,.22,20.44.09,36.51Z"/>
  <path class="uuid-d12b3eed-b601-4c2e-83db-633d2ad75378" d="m1383.31,1617.65l6.72,30-56.37,18.65s-3.14-22.75-5.2-37.73c-61.05,18.12-110.7,12.44-110.7,12.44l4.15,38.34h-15.28c.22-12.49.57-20.74.57-20.74,0,0,.39-25.55,1.27-62.84h71.48l-68.73-99.17c2.1-61.26,5.02-124.49,9.04-159.25,3.45-79.52,30.65-99.78,46.77-100.3,16.16-.48,36.55,10.31,36.55,10.31,36.51,26.29,61.61,59.95,78.73,92.88-29.13,26.33-70,55.59-124.89,79.39,41.31,19.56,74.98,37.29,162.35,50.96,1.75,20.22,6.33,76.29,7.99,132.27-25.76,12.05-44.45,14.8-44.45,14.8Z"/>
  <polygon class="uuid-afaf9d34-4842-4c04-b4ea-0d0c145a1e32" points="1279.95 1595.77 1112.71 1595.77 1170.52 1496.48 1189.08 1464.64 1211.22 1496.61 1279.95 1595.77"/>
  <path class="uuid-afaf9d34-4842-4c04-b4ea-0d0c145a1e32" d="m1142.97,1419.62c-40.96,19.34-74.32,36.94-159.73,50.52-10.87,1.75-22.62,3.41-35.33,4.98-2.05-4.32-5.07-12.71-7.99-24.1v-.04c-9.87-39.13-18.21-113.75,17.95-181.35l.04-.04c.57,1,8.43,14.98,25.54,35.11,8.82,10.39,20.13,22.4,34.19,35.15,29.17,26.46,70.17,55.85,125.32,79.78Z"/>
  <path class="uuid-afaf9d34-4842-4c04-b4ea-0d0c145a1e32" d="m1462.35,1442.5v.04c-3.36,15.76-7.34,27.25-9.91,32.58-11.66-1.44-22.53-2.97-32.66-4.54-87.38-13.67-121.04-31.4-162.35-50.96,54.89-23.8,95.76-53.06,124.89-79.39,15.33-13.84,27.42-26.9,36.64-37.95,16.29-19.56,23.49-32.75,23.49-32.75,33.75,63.01,28.82,132.14,19.91,172.96Z"/>
  <path class="uuid-02ccb37e-032c-4215-97b4-8cb1788d7f09" d="m1842.69,1320.28v.13c-7.25,84.67-98.34,122.88-123.93,133.4-1.92-57.29-23.06-115.19-41.44-156.24-18.38-41.05,11.88-14.63,33.97,2.75-92.31-124.97-342.96-152.79-496.67-158.95-384.62-1.57-508.63,131.7-530.9,158.77,43.84-34.41,49.74-28.86,43.54-11.14-28.34,52.31-47.86,164.8-47.86,164.8-17.99-9.3-33.67-18.65-47.25-28.08-13.93-33.01-32.49-103.18,33.41-150.52,88.82-63.75,193.05-127.51,451.73-145.02,168.64-2.01,285.76,2.45,391.3,33.93-50.39-17.99-213.14-64.19-424-54.32,94.58-11.18,216.28-12.31,384.31,16.46,290.56,66.5,327.46,152.88,349.95,185.19-4.41-50.92-58.43-103.23-79.43-121.83,57.07,34.06,96.07,77.03,103.27,130.65Z"/>
  <path class="uuid-ceaadd21-dffd-49e1-98d5-dcb6be853c86" d="m1842.69,1320.28c-7.2-53.62-46.2-96.59-103.27-130.65-171.17-102.09-504.92-123.45-630.16-108.42-432.08,30-489.29,141.31-516.67,195.1,59.65-67.16,109.6-83.67,225.8-124.06,93.53-26.11,183.58-38.6,266.19-42.44,210.87-9.87,373.61,36.33,424,54.32-105.54-31.48-222.66-35.94-391.3-33.93-258.68,17.51-362.92,81.26-451.73,145.02-65.89,47.34-47.33,117.51-33.41,150.52-100.56-69.6-84.32-141.22-30.04-209.69,158.42-140.17,479.46-168.34,720.46-152.44,332.26,31.83,490.34,135.11,516.32,211.57,3.93,16.33,4.98,31.35,3.8,45.11Z"/>
  <path class="uuid-afaf9d34-4842-4c04-b4ea-0d0c145a1e32" d="m1818.85,1311.46c-22.49-32.31-59.39-118.69-349.95-185.19-168.03-28.78-289.73-27.64-384.31-16.46-82.62,3.84-172.66,16.33-266.19,42.44-116.2,40.39-166.15,56.9-225.8,124.06,27.38-53.8,84.58-165.1,516.67-195.1,125.24-15.02,458.98,6.33,630.16,108.42,21,18.6,75.02,70.91,79.43,121.83Z"/>
  <path class="uuid-a04e3ffa-157b-47b5-be1c-8869931c8fbe" d="m1308.51,917.44v105.69c-10.35-.7-20.79-1.31-31.27-1.79v-88.96c0-14.88-12.06-26.94-26.94-26.94h-78.83c-14.88,0-26.94,12.06-26.94,26.94v88c-11,.39-21.88.87-32.71,1.48v-104.42c0-23.07,18.7-41.78,41.78-41.78h113.12c23.07,0,41.78,18.7,41.78,41.78Z"/>
  <rect class="uuid-02ccb37e-032c-4215-97b4-8cb1788d7f09" x="1176.46" y="936.45" width="67.6" height="72.66"/>
  <path class="uuid-ceaadd21-dffd-49e1-98d5-dcb6be853c86" d="m1236.9,944.66c0,21.61-20.7,39.17-46.2,39.17-4.98,0-9.74-.66-14.24-1.88v-45.5h59.39c.7,2.66,1.05,5.41,1.05,8.21Z"/>
  <path class="uuid-97eb561a-fa8a-4412-99d2-7d79cde5ab79" d="m1074.2,972.78l-2.14,51.83c-31.35,2.53-61.92,6.03-91.57,10.39-7.29-50.22,93.71-62.23,93.71-62.23Z"/>
  <path class="uuid-97eb561a-fa8a-4412-99d2-7d79cde5ab79" d="m1439.99,1035c-.13,1.14-.31,2.18-.52,3.14-29.39-4.8-59.74-8.73-90.91-11.7l-2.27-53.67s101,12.01,93.71,62.23Z"/>
  <path class="uuid-ceaadd21-dffd-49e1-98d5-dcb6be853c86" d="m1371.13,841.74c-41.92-15.5-89.25-24.76-127.07-24.76-91.39,3.23-122.44,20.74-132.75,30.65-2.01.65-3.76,1.35-5.2,2.05-22.71,13.23-29.17,37.73-31.09,59.91-27.51,1.48-54.76,18.65-68.16,28.43,1-18.95,14.98-39.69,56.81-95.5,86.5-98.43,106.77-171.48,108.08-200.74-31.92,58.51-83.58,129.3-104.67,153.79,44.02-150.87-20.52-224.1-39.47-242,11.83,24.28,19.04,51.31,23.23,77.64-.39,21.7-1,46.42-2.27,60.78-31.35-96.15-121.26-123.84-148.99-122.92-59.47,5.41-86.24,30.22-108.64,65.24-15.28,25.63-22.18,53.06-25.37,71.92-4.63-50.65,15.28-122.88,88.47-174.1,91.61-66.11,220.65-53.36,329.2,5.98,6.64,4.1,13.01,8.34,19.17,12.62,47.99,44.58,79.08,94.98,80.61,114.36,2.01,33.36-86.59,91.18-115.46,113.58,79.78-34.98,122.83-4.54,122.83-4.54,0,0,1.27.83,3.54,2.36,1.09.7,2.18,1.4,3.23,2.14,3.01,2.1,6.94,4.76,11.48,7.86.87.61,1.79,1.27,2.75,1.92.31.22.61.44.92.66,24.8,17.99,44.02,35.76,58.82,52.66Z"/>
  <path class="uuid-02ccb37e-032c-4215-97b4-8cb1788d7f09" d="m1052.27,751.69c-5.11-28.17-16.42-67.07-58.95-118.77-67.6-79.3-133.14-48.56-133.14-48.56,0,0,50.22,14.32,67.12,21.96-119.82-28.08-147.42,64.1-147.42,91.74,3.1,69.21,45.11,88.56,67.12,99.78-59.82-11.75-77.81-56.64-81.44-91.48v-.13c3.19-18.86,10.09-46.29,25.37-71.92,22.4-35.02,49.17-59.82,108.64-65.24,27.73-.92,117.64,26.77,148.99,122.92,1.27-14.37,1.88-39.08,2.27-60.78,8.17,51.26,4.8,99.82,1.44,120.48Z"/>
  <path class="uuid-02ccb37e-032c-4215-97b4-8cb1788d7f09" d="m1075.03,909.59c-.61,7.25-.79,14.28-.83,20.57-22.75,5.33-66.07,21.75-66.07,21.75-1.05-4.85-1.53-9.3-1.27-13.89,13.41-9.78,40.65-26.94,68.16-28.43Z"/>
  <path class="uuid-02ccb37e-032c-4215-97b4-8cb1788d7f09" d="m1370.87,797.37c-33.93-25.55-62.18-26.29-80.48-23.23,0,0-43.06-30.44-122.83,4.54,28.86-22.4,117.46-80.22,115.46-113.58-1.53-19.39-32.62-69.78-80.61-114.36,130.26,90.91,160.48,220.43,168.47,246.63Z"/>
  <path class="uuid-02ccb37e-032c-4215-97b4-8cb1788d7f09" d="m1423.79,951.91c-9.52-5.85-75.89-20.35-75.89-20.35,0,0,0-27.86-1.62-39.65-1.62-11.83-9.48-42.36-62.49-51.09-57.51-7.47-143.1-2.93-172.48,6.81,10.31-9.91,41.35-27.42,132.75-30.65,37.82,0,85.15,9.26,127.07,24.76,46.64,53.1,50.48,97.29,52.66,110.17Z"/>
</svg>